<?xml version="1.0" standalone="no"?>
<svg xmlns:xlink="http://www.w3.org/1999/xlink" id="wave" style="transform:rotate(0deg); transition: 0.3s" viewBox="0 0 1440 490" version="1.1" xmlns="http://www.w3.org/2000/svg"><defs><linearGradient id="sw-gradient-0" x1="0" x2="0" y1="1" y2="0"><stop stop-color="rgba(23, 23, 23, 1)" offset="0%"/><stop stop-color="rgba(23, 23, 23, 1)" offset="100%"/></linearGradient></defs><path style="transform:translate(0, 0px); opacity:1" fill="url(#sw-gradient-0)" d="M0,49L24,98C48,147,96,245,144,253.2C192,261,240,180,288,130.7C336,82,384,65,432,98C480,131,528,212,576,220.5C624,229,672,163,720,163.3C768,163,816,229,864,253.2C912,278,960,261,1008,228.7C1056,196,1104,147,1152,114.3C1200,82,1248,65,1296,73.5C1344,82,1392,114,1440,179.7C1488,245,1536,343,1584,392C1632,441,1680,441,1728,400.2C1776,359,1824,278,1872,228.7C1920,180,1968,163,2016,130.7C2064,98,2112,49,2160,24.5C2208,0,2256,0,2304,32.7C2352,65,2400,131,2448,163.3C2496,196,2544,196,2592,163.3C2640,131,2688,65,2736,32.7C2784,0,2832,0,2880,40.8C2928,82,2976,163,3024,212.3C3072,261,3120,278,3168,277.7C3216,278,3264,261,3312,228.7C3360,196,3408,147,3432,122.5L3456,98L3456,490L3432,490C3408,490,3360,490,3312,490C3264,490,3216,490,3168,490C3120,490,3072,490,3024,490C2976,490,2928,490,2880,490C2832,490,2784,490,2736,490C2688,490,2640,490,2592,490C2544,490,2496,490,2448,490C2400,490,2352,490,2304,490C2256,490,2208,490,2160,490C2112,490,2064,490,2016,490C1968,490,1920,490,1872,490C1824,490,1776,490,1728,490C1680,490,1632,490,1584,490C1536,490,1488,490,1440,490C1392,490,1344,490,1296,490C1248,490,1200,490,1152,490C1104,490,1056,490,1008,490C960,490,912,490,864,490C816,490,768,490,720,490C672,490,624,490,576,490C528,490,480,490,432,490C384,490,336,490,288,490C240,490,192,490,144,490C96,490,48,490,24,490L0,490Z"/></svg>